<svg xmlns="http://www.w3.org/2000/svg" height="48" viewBox="0 96 960 960" width="48"><path d="M220 916h520V482H220v434Zm260.168-140Q512 776 534.5 753.969T557 701q0-30-22.668-54.5t-54.5-24.5Q448 622 425.5 646.5t-22.5 55q0 30.5 22.668 52.5t54.5 22ZM220 916V482v434Zm0 60q-24.75 0-42.375-17.625T160 916V482q0-24.75 17.625-42.375T220 422h330v-96q0-78.85 55.606-134.425Q661.212 136 740.106 136T874.5 191.575Q930 247.15 930 326h-60q0-54-37.882-92-37.883-38-92-38Q686 196 648 233.917 610 271.833 610 326v96h130q24.75 0 42.375 17.625T800 482v434q0 24.75-17.625 42.375T740 976H220Z"/></svg>